<?xml version="1.0" encoding="UTF-8" standalone="no"?>
<!-- Created with Inkscape (http://www.inkscape.org/) -->

<svg
   xmlns:dc="http://purl.org/dc/elements/1.1/"
   xmlns:cc="http://creativecommons.org/ns#"
   xmlns:rdf="http://www.w3.org/1999/02/22-rdf-syntax-ns#"
   xmlns:svg="http://www.w3.org/2000/svg"
   xmlns="http://www.w3.org/2000/svg"
   xmlns:sodipodi="http://sodipodi.sourceforge.net/DTD/sodipodi-0.dtd"
   xmlns:inkscape="http://www.inkscape.org/namespaces/inkscape"
   width="744.09448819"
   height="1052.3622047"
   id="svg2"
   version="1.1"
   inkscape:version="0.48.4 r9939"
   sodipodi:docname="New document 1">
  <sodipodi:namedview
     id="base"
     pagecolor="#ffffff"
     bordercolor="#666666"
     borderopacity="1.0"
     inkscape:pageopacity="0.0"
     inkscape:pageshadow="2"
     inkscape:zoom="0.98994949"
     inkscape:cx="447.28488"
     inkscape:cy="656.7824"
     inkscape:document-units="px"
     inkscape:current-layer="layer1"
     showgrid="false"
     inkscape:window-width="1448"
     inkscape:window-height="1014"
     inkscape:window-x="0"
     inkscape:window-y="0"
     inkscape:window-maximized="0" />
  <defs
     id="defs4" />
  <metadata
     id="metadata7">
    <rdf:RDF>
      <cc:Work
         rdf:about="">
        <dc:format>image/svg+xml</dc:format>
        <dc:type
           rdf:resource="http://purl.org/dc/dcmitype/StillImage" />
        <dc:title></dc:title>
      </cc:Work>
    </rdf:RDF>
  </metadata>
  <g
     id="layer1"
     inkscape:groupmode="layer"
     inkscape:label="Layer 1">
    <g
       id="g5038"
       transform="translate(232.55489,387.14833)"
       inkscape:label="Gear48"
       style="fill:#7cff00;fill-opacity:0.3942308;stroke:#ff0000;stroke-width:0.35433072;stroke-miterlimit:4;stroke-opacity:1;stroke-dasharray:none">
      <path
         id="path5040"
         d="m 146.274,-6.589 6.433,1.59 6.429,2.539 0,4.92 -6.429,2.539 -6.433,1.59 -0.391,5.971 6.17,2.416 6.043,3.356 -0.643,4.879 -6.705,1.678 -6.585,0.737 -1.167,5.868 5.801,3.201 5.553,4.116 -1.273,4.753 -6.867,0.788 -6.625,-0.129 -1.924,5.666 5.335,3.931 4.968,4.806 -1.883,4.546 -6.911,-0.115 -6.552,-0.992 -2.646,5.365 4.776,4.594 4.298,5.413 -2.46,4.262 -6.837,-1.016 -6.367,-1.839 -3.323,4.974 4.135,5.178 3.555,5.928 -2.996,3.904 -6.646,-1.9 -6.071,-2.654 -3.945,4.498 3.424,5.673 2.751,6.341 -3.48,3.48 -6.341,-2.751 -5.673,-3.424 -4.498,3.945 2.654,6.071 1.9,6.646 -3.904,2.996 -5.928,-3.555 -5.178,-4.135 -4.974,3.323 1.839,6.367 1.016,6.837 -4.262,2.46 -5.413,-4.298 -4.594,-4.776 -5.365,2.646 0.992,6.552 0.115,6.911 -4.546,1.883 -4.806,-4.968 -3.931,-5.335 -5.666,1.924 0.129,6.625 -0.788,6.867 -4.753,1.273 -4.116,-5.553 -3.201,-5.801 -5.868,1.167 -0.737,6.585 -1.678,6.705 -4.879,0.643 -3.356,-6.043 -2.416,-6.17 -5.971,0.391 -1.59,6.433 -2.539,6.429 -4.92,0 -2.539,-6.429 -1.59,-6.433 -5.971,-0.391 -2.416,6.17 -3.356,6.043 -4.879,-0.643 -1.678,-6.705 -0.737,-6.585 -5.868,-1.167 -3.201,5.801 -4.116,5.553 -4.753,-1.273 -0.788,-6.867 0.129,-6.625 -5.666,-1.924 -3.931,5.335 -4.806,4.968 -4.546,-1.883 0.115,-6.911 0.992,-6.552 -5.365,-2.646 -4.594,4.776 -5.413,4.298 -4.262,-2.46 1.016,-6.837 1.839,-6.367 -4.974,-3.323 -5.178,4.135 -5.928,3.555 -3.904,-2.996 1.9,-6.646 2.654,-6.071 -4.498,-3.945 -5.673,3.424 -6.341,2.751 -3.48,-3.48 2.751,-6.341 3.424,-5.673 -3.945,-4.498 -6.071,2.654 -6.646,1.9 -2.996,-3.904 3.555,-5.928 4.135,-5.178 -3.323,-4.974 -6.367,1.839 -6.837,1.016 -2.46,-4.262 4.298,-5.413 4.776,-4.594 -2.646,-5.365 -6.552,0.992 -6.911,0.115 -1.883,-4.546 4.968,-4.806 5.335,-3.931 -1.924,-5.666 -6.625,0.129 -6.867,-0.788 -1.273,-4.753 5.553,-4.116 5.801,-3.201 -1.167,-5.868 -6.585,-0.737 -6.705,-1.678 -0.643,-4.879 6.043,-3.356 6.17,-2.416 -0.391,-5.971 -6.433,-1.59 -6.429,-2.539 0,-4.92 6.429,-2.539 6.433,-1.59 0.391,-5.971 -6.17,-2.416 -6.043,-3.356 0.643,-4.879 6.705,-1.678 6.585,-0.737 1.167,-5.868 -5.801,-3.201 -5.553,-4.116 1.273,-4.753 6.867,-0.788 6.625,0.129 1.924,-5.666 -5.335,-3.931 -4.968,-4.806 1.883,-4.546 6.911,0.115 6.552,0.992 2.646,-5.365 -4.776,-4.594 -4.298,-5.413 2.46,-4.262 6.837,1.016 6.367,1.839 3.323,-4.974 -4.135,-5.178 -3.555,-5.928 2.996,-3.904 6.646,1.9 6.071,2.654 3.945,-4.498 -3.424,-5.673 -2.751,-6.341 3.48,-3.48 6.341,2.751 5.673,3.424 4.498,-3.945 -2.654,-6.071 -1.9,-6.646 3.904,-2.996 5.928,3.555 5.178,4.135 4.974,-3.323 -1.839,-6.367 -1.016,-6.837 4.262,-2.46 5.413,4.298 4.594,4.776 5.365,-2.646 -0.992,-6.552 -0.115,-6.911 4.546,-1.883 4.806,4.968 3.931,5.335 5.666,-1.924 -0.129,-6.625 0.788,-6.867 4.753,-1.273 4.116,5.553 3.201,5.801 5.868,-1.167 0.737,-6.585 1.678,-6.705 4.879,-0.643 3.356,6.043 2.416,6.17 5.971,-0.391 1.59,-6.433 2.539,-6.429 4.92,0 2.539,6.429 1.59,6.433 5.971,0.391 2.416,-6.17 3.356,-6.043 4.879,0.643 1.678,6.705 0.737,6.585 5.868,1.167 3.201,-5.801 4.116,-5.553 4.753,1.273 0.788,6.867 -0.129,6.625 5.666,1.924 3.931,-5.335 4.806,-4.968 4.546,1.883 -0.115,6.911 -0.992,6.552 5.365,2.646 4.594,-4.776 5.413,-4.298 4.262,2.46 -1.016,6.837 -1.839,6.367 4.974,3.323 5.178,-4.135 5.928,-3.555 3.904,2.996 -1.9,6.646 -2.654,6.071 4.498,3.945 5.673,-3.424 6.341,-2.751 3.48,3.48 -2.751,6.341 -3.424,5.673 3.945,4.498 6.071,-2.654 6.646,-1.9 2.996,3.904 -3.555,5.928 -4.135,5.178 3.323,4.974 6.367,-1.839 6.837,-1.016 2.46,4.262 -4.298,5.413 -4.776,4.594 2.646,5.365 6.552,-0.992 6.911,-0.115 1.883,4.546 -4.968,4.806 -5.335,3.931 1.924,5.666 6.625,-0.129 6.867,0.788 1.273,4.753 -5.553,4.116 -5.801,3.201 1.167,5.868 6.585,0.737 6.705,1.678 0.643,4.879 -6.043,3.356 -6.17,2.416 z"
         style="fill:#7cff00;fill-opacity:0.3942308;stroke:#ff0000;stroke-width:0.35433072;stroke-miterlimit:4;stroke-opacity:1;stroke-dasharray:none"
         inkscape:connector-curvature="0" />
    </g>
    <g
       style="stroke-width:0.35433072;stroke-miterlimit:4;stroke-dasharray:none"
       id="g3022"
       transform="translate(232.87307,387.14833)"
       inkscape:label="Gear34">
      <path
         inkscape:connector-curvature="0"
         id="path3024"
         d="m 101.669,-6.214 6.441,1.216 6.457,2.617 0,4.762 -6.457,2.617 -6.441,1.216 -0.589,6.359 6.108,2.379 5.866,3.759 -0.875,4.681 -6.828,1.386 -6.555,0.012 -1.747,6.143 5.566,3.46 5.076,4.773 -1.721,4.441 -6.966,0.107 -6.445,-1.192 -2.847,5.717 4.836,4.424 4.112,5.624 -2.507,4.049 -6.867,-1.174 -6.116,-2.357 -3.849,5.097 3.94,5.237 3.009,6.284 -3.208,3.52 -6.535,-2.416 -5.579,-3.44 -4.719,4.302 2.91,5.872 1.803,6.73 -3.8,2.87 -5.98,-3.575 -4.851,-4.407 -5.43,3.362 1.782,6.307 0.535,6.947 -4.263,2.122 -5.221,-4.613 -3.959,-5.223 -5.955,2.307 0.593,6.527 -0.75,6.927 -4.581,1.303 -4.284,-5.494 -2.932,-5.862 -6.277,1.173 -0.617,6.526 -2.01,6.67 -4.742,0.44 -3.202,-6.188 -1.805,-6.301 -6.386,0 -1.805,6.301 -3.202,6.188 -4.742,-0.44 -2.01,-6.67 -0.617,-6.526 -6.277,-1.173 -2.932,5.862 -4.284,5.494 -4.581,-1.303 -0.75,-6.927 0.593,-6.527 -5.955,-2.307 -3.959,5.223 -5.221,4.613 -4.263,-2.122 0.535,-6.947 1.782,-6.307 -5.43,-3.362 -4.851,4.407 -5.98,3.575 -3.8,-2.87 1.803,-6.73 2.91,-5.872 -4.719,-4.302 -5.579,3.44 -6.535,2.416 -3.208,-3.52 3.009,-6.284 3.94,-5.237 -3.849,-5.097 -6.116,2.357 -6.867,1.174 -2.507,-4.049 4.112,-5.624 4.836,-4.424 -2.847,-5.717 -6.445,1.192 -6.966,-0.107 -1.721,-4.441 5.076,-4.773 5.566,-3.46 -1.747,-6.143 -6.555,-0.012 -6.828,-1.386 -0.875,-4.681 5.866,-3.759 6.108,-2.379 -0.589,-6.359 -6.441,-1.216 -6.457,-2.617 0,-4.762 6.457,-2.617 6.441,-1.216 0.589,-6.359 -6.108,-2.379 -5.866,-3.759 0.875,-4.681 6.828,-1.386 6.555,-0.012 1.747,-6.143 -5.566,-3.46 -5.076,-4.773 1.721,-4.441 6.966,-0.107 6.445,1.192 2.847,-5.717 -4.836,-4.424 -4.112,-5.624 2.507,-4.049 6.867,1.174 6.116,2.357 3.849,-5.097 -3.94,-5.237 -3.009,-6.284 3.208,-3.52 6.535,2.416 5.579,3.44 4.719,-4.302 -2.91,-5.872 -1.803,-6.73 3.8,-2.87 5.98,3.575 4.851,4.407 5.43,-3.362 -1.782,-6.307 -0.535,-6.947 4.263,-2.122 5.221,4.613 3.959,5.223 5.955,-2.307 -0.593,-6.527 0.75,-6.927 4.581,-1.303 4.284,5.494 2.932,5.862 6.277,-1.173 0.617,-6.526 2.01,-6.67 4.742,-0.44 3.202,6.188 1.805,6.301 6.386,0 1.805,-6.301 3.202,-6.188 4.742,0.44 2.01,6.67 0.617,6.526 6.277,1.173 2.932,-5.862 4.284,-5.494 4.581,1.303 0.75,6.927 -0.593,6.527 5.955,2.307 3.959,-5.223 5.221,-4.613 4.263,2.122 -0.535,6.947 -1.782,6.307 5.43,3.362 4.851,-4.407 5.98,-3.575 3.8,2.87 -1.803,6.73 -2.91,5.872 4.719,4.302 5.579,-3.44 6.535,-2.416 3.208,3.52 -3.009,6.284 -3.94,5.237 3.849,5.097 6.116,-2.357 6.867,-1.174 2.507,4.049 -4.112,5.624 -4.836,4.424 2.847,5.717 6.445,-1.192 6.966,0.107 1.721,4.441 -5.076,4.773 -5.566,3.46 1.747,6.143 6.555,0.012 6.828,1.386 0.875,4.681 -5.866,3.759 -6.108,2.379 z"
         style="fill:none;stroke:#000000;stroke-width:0.35433072;stroke-miterlimit:4;stroke-dasharray:none" />
    </g>
    <g
       style="stroke:#000000;stroke-width:0.35433072;stroke-miterlimit:4;stroke-opacity:1;stroke-dasharray:none"
       transform="translate(-205.48915,191.92898)"
       id="g3097">
      <g
         style="stroke:#ff0000;stroke-width:0.35433072;stroke-miterlimit:4;stroke-opacity:1;stroke-dasharray:none"
         inkscape:label="Gear15"
         transform="translate(375,195.21934)"
         id="g3058">
        <path
           inkscape:connector-curvature="0"
           style="fill:none;stroke:#ff0000;stroke-width:0.35433072;stroke-miterlimit:4;stroke-opacity:1;stroke-dasharray:none"
           d="m 41.085,-4.938 3.461,-0.416 2.939,0.363 6.587,2.902 0,4.178 -6.587,2.902 -2.939,0.363 -3.461,-0.416 -1.544,7.261 3.332,1.028 2.537,1.527 4.837,5.331 -1.699,3.816 -7.198,-0.028 -2.833,-0.863 -2.993,-1.788 -4.363,6.005 2.625,2.295 1.697,2.427 2.251,6.837 -3.105,2.795 -6.564,-2.953 -2.237,-1.941 -2.007,-2.851 -6.429,3.712 1.466,3.164 0.562,2.907 -0.724,7.161 -3.973,1.291 L 9.927,46.703 8.673,44.021 7.999,40.6 0.617,41.376 0.669,44.862 0,47.746 l -3.575,6.248 -4.154,-0.436 -2.198,-6.855 -0.054,-2.96 0.775,-3.4 -7.06,-2.294 -1.37,3.206 -1.784,2.364 -5.807,4.253 -3.618,-2.088 0.78,-7.156 1.155,-2.727 2.091,-2.79 -5.516,-4.967 -2.557,2.371 -2.591,1.434 -7.035,1.524 -2.455,-3.38 3.623,-6.22 2.164,-2.021 3.045,-1.698 -3.019,-6.782 -3.3,1.127 -2.95,0.255 -7.046,-1.469 -0.869,-4.086 5.84,-4.208 2.799,-0.967 3.473,-0.312 0,-7.424 -3.473,-0.312 -2.799,-0.967 -5.84,-4.208 0.869,-4.086 7.046,-1.469 2.95,0.255 3.3,1.127 3.019,-6.782 -3.045,-1.698 -2.164,-2.021 -3.623,-6.22 2.455,-3.38 7.035,1.524 2.591,1.434 2.557,2.371 5.516,-4.967 -2.091,-2.79 -1.155,-2.727 -0.78,-7.156 3.618,-2.088 5.807,4.253 1.784,2.364 1.37,3.206 7.06,-2.294 -0.775,-3.4 0.054,-2.96 2.198,-6.855 4.154,-0.436 3.575,6.248 0.669,2.884 -0.052,3.486 7.382,0.776 0.674,-3.421 1.254,-2.682 4.796,-5.368 3.973,1.291 0.724,7.161 -0.562,2.907 -1.466,3.164 6.429,3.712 2.007,-2.851 2.237,-1.941 6.564,-2.953 3.105,2.795 -2.251,6.837 -1.697,2.427 -2.625,2.295 4.363,6.005 2.993,-1.788 2.833,-0.863 7.198,-0.028 1.699,3.816 -4.837,5.331 -2.537,1.527 -3.332,1.028 z"
           id="path3060" />
      </g>
      <g
         style="stroke:#000000;stroke-width:0.35433072;stroke-miterlimit:4;stroke-opacity:1;stroke-dasharray:none"
         id="g3082"
         transform="translate(375,195.21934)"
         inkscape:label="Gear14">
        <path
           inkscape:connector-curvature="0"
           id="path3084"
           d="m 37.889,-4.842 3.649,-0.466 2.745,0.318 6.605,2.934 0,4.112 -6.605,2.934 -2.745,0.318 -3.649,-0.466 -1.651,7.235 3.49,1.163 2.335,1.478 4.677,5.509 -1.783,3.705 -7.224,-0.223 -2.612,-0.904 -3.085,-2.003 -4.627,5.802 2.64,2.562 1.462,2.345 1.824,6.993 -3.214,2.564 -6.412,-3.335 -1.961,-1.948 -1.91,-3.143 -6.686,3.22 1.266,3.453 0.3,2.748 -1.39,7.092 L 9.32,50.07 4.99,44.283 4.068,41.678 3.711,38.017 l -7.422,0 -0.357,3.661 -0.922,2.605 -4.33,5.787 -4.008,-0.915 -1.39,-7.092 0.3,-2.748 1.266,-3.453 -6.686,-3.22 -1.91,3.143 -1.961,1.948 -6.412,3.335 -3.214,-2.564 1.824,-6.993 1.462,-2.345 2.64,-2.562 -4.627,-5.802 -3.085,2.003 -2.612,0.904 -7.224,0.223 -1.783,-3.705 4.677,-5.509 2.335,-1.478 3.49,-1.163 -1.651,-7.235 -3.649,0.466 -2.745,-0.318 -6.605,-2.934 0,-4.112 6.605,-2.934 2.745,-0.318 3.649,0.466 1.651,-7.235 -3.49,-1.163 -2.335,-1.478 -4.677,-5.509 1.783,-3.705 7.224,0.223 2.612,0.904 3.085,2.003 4.627,-5.802 -2.64,-2.562 -1.462,-2.345 -1.824,-6.993 3.214,-2.564 6.412,3.335 1.961,1.948 1.91,3.143 6.686,-3.22 -1.266,-3.453 -0.3,-2.748 1.39,-7.092 4.008,-0.915 4.33,5.787 0.922,2.605 0.357,3.661 7.422,0 0.357,-3.661 0.922,-2.605 4.33,-5.787 4.008,0.915 1.39,7.092 -0.3,2.748 -1.266,3.453 6.686,3.22 1.91,-3.143 1.961,-1.948 6.412,-3.335 3.214,2.564 -1.824,6.993 -1.462,2.345 -2.64,2.562 4.627,5.802 3.085,-2.003 2.612,-0.904 7.224,-0.223 1.783,3.705 -4.677,5.509 -2.335,1.478 -3.49,1.163 z"
           style="fill:none;stroke:#000000;stroke-width:0.35433072;stroke-miterlimit:4;stroke-opacity:1;stroke-dasharray:none" />
      </g>
    </g>
    <g
       id="g3871"
       transform="translate(-104.5339,243.00041)"
       style="stroke:#000000;stroke-width:0.35433072;stroke-miterlimit:4;stroke-opacity:1;stroke-dasharray:none">
      <g
         id="g3873"
         transform="translate(375,195.21934)"
         inkscape:label="Gear15"
         style="stroke:#000000;stroke-width:0.35433072;stroke-miterlimit:4;stroke-opacity:1;stroke-dasharray:none">
        <path
           id="path3875"
           d="m 41.085,-4.938 3.461,-0.416 2.939,0.363 6.587,2.902 0,4.178 -6.587,2.902 -2.939,0.363 -3.461,-0.416 -1.544,7.261 3.332,1.028 2.537,1.527 4.837,5.331 -1.699,3.816 -7.198,-0.028 -2.833,-0.863 -2.993,-1.788 -4.363,6.005 2.625,2.295 1.697,2.427 2.251,6.837 -3.105,2.795 -6.564,-2.953 -2.237,-1.941 -2.007,-2.851 -6.429,3.712 1.466,3.164 0.562,2.907 -0.724,7.161 -3.973,1.291 L 9.927,46.703 8.673,44.021 7.999,40.6 0.617,41.376 0.669,44.862 0,47.746 l -3.575,6.248 -4.154,-0.436 -2.198,-6.855 -0.054,-2.96 0.775,-3.4 -7.06,-2.294 -1.37,3.206 -1.784,2.364 -5.807,4.253 -3.618,-2.088 0.78,-7.156 1.155,-2.727 2.091,-2.79 -5.516,-4.967 -2.557,2.371 -2.591,1.434 -7.035,1.524 -2.455,-3.38 3.623,-6.22 2.164,-2.021 3.045,-1.698 -3.019,-6.782 -3.3,1.127 -2.95,0.255 -7.046,-1.469 -0.869,-4.086 5.84,-4.208 2.799,-0.967 3.473,-0.312 0,-7.424 -3.473,-0.312 -2.799,-0.967 -5.84,-4.208 0.869,-4.086 7.046,-1.469 2.95,0.255 3.3,1.127 3.019,-6.782 -3.045,-1.698 -2.164,-2.021 -3.623,-6.22 2.455,-3.38 7.035,1.524 2.591,1.434 2.557,2.371 5.516,-4.967 -2.091,-2.79 -1.155,-2.727 -0.78,-7.156 3.618,-2.088 5.807,4.253 1.784,2.364 1.37,3.206 7.06,-2.294 -0.775,-3.4 0.054,-2.96 2.198,-6.855 4.154,-0.436 3.575,6.248 0.669,2.884 -0.052,3.486 7.382,0.776 0.674,-3.421 1.254,-2.682 4.796,-5.368 3.973,1.291 0.724,7.161 -0.562,2.907 -1.466,3.164 6.429,3.712 2.007,-2.851 2.237,-1.941 6.564,-2.953 3.105,2.795 -2.251,6.837 -1.697,2.427 -2.625,2.295 4.363,6.005 2.993,-1.788 2.833,-0.863 7.198,-0.028 1.699,3.816 -4.837,5.331 -2.537,1.527 -3.332,1.028 z"
           style="fill:none;stroke:#ff0000;stroke-width:0.35433072;stroke-miterlimit:4;stroke-opacity:1;stroke-dasharray:none"
           inkscape:connector-curvature="0" />
      </g>
      <g
         inkscape:label="Gear14"
         transform="translate(375,195.21934)"
         id="g3877"
         style="stroke:#000000;stroke-width:0.35433072;stroke-miterlimit:4;stroke-opacity:1;stroke-dasharray:none">
        <path
           style="fill:none;stroke:#000000;stroke-width:0.35433072;stroke-miterlimit:4;stroke-opacity:1;stroke-dasharray:none"
           d="m 37.889,-4.842 3.649,-0.466 2.745,0.318 6.605,2.934 0,4.112 -6.605,2.934 -2.745,0.318 -3.649,-0.466 -1.651,7.235 3.49,1.163 2.335,1.478 4.677,5.509 -1.783,3.705 -7.224,-0.223 -2.612,-0.904 -3.085,-2.003 -4.627,5.802 2.64,2.562 1.462,2.345 1.824,6.993 -3.214,2.564 -6.412,-3.335 -1.961,-1.948 -1.91,-3.143 -6.686,3.22 1.266,3.453 0.3,2.748 -1.39,7.092 L 9.32,50.07 4.99,44.283 4.068,41.678 3.711,38.017 l -7.422,0 -0.357,3.661 -0.922,2.605 -4.33,5.787 -4.008,-0.915 -1.39,-7.092 0.3,-2.748 1.266,-3.453 -6.686,-3.22 -1.91,3.143 -1.961,1.948 -6.412,3.335 -3.214,-2.564 1.824,-6.993 1.462,-2.345 2.64,-2.562 -4.627,-5.802 -3.085,2.003 -2.612,0.904 -7.224,0.223 -1.783,-3.705 4.677,-5.509 2.335,-1.478 3.49,-1.163 -1.651,-7.235 -3.649,0.466 -2.745,-0.318 -6.605,-2.934 0,-4.112 6.605,-2.934 2.745,-0.318 3.649,0.466 1.651,-7.235 -3.49,-1.163 -2.335,-1.478 -4.677,-5.509 1.783,-3.705 7.224,0.223 2.612,0.904 3.085,2.003 4.627,-5.802 -2.64,-2.562 -1.462,-2.345 -1.824,-6.993 3.214,-2.564 6.412,3.335 1.961,1.948 1.91,3.143 6.686,-3.22 -1.266,-3.453 -0.3,-2.748 1.39,-7.092 4.008,-0.915 4.33,5.787 0.922,2.605 0.357,3.661 7.422,0 0.357,-3.661 0.922,-2.605 4.33,-5.787 4.008,0.915 1.39,7.092 -0.3,2.748 -1.266,3.453 6.686,3.22 1.91,-3.143 1.961,-1.948 6.412,-3.335 3.214,2.564 -1.824,6.993 -1.462,2.345 -2.64,2.562 4.627,5.802 3.085,-2.003 2.612,-0.904 7.224,-0.223 1.783,3.705 -4.677,5.509 -2.335,1.478 -3.49,1.163 z"
           id="path3879"
           inkscape:connector-curvature="0" />
      </g>
    </g>
    <g
       style="stroke:#000000;stroke-width:0.35433072;stroke-miterlimit:4;stroke-opacity:1;stroke-dasharray:none"
       transform="matrix(0,-1,-1,0,456.82272,705.33437)"
       id="g3881">
      <g
         style="stroke:#ff0000;stroke-width:0.35433072;stroke-miterlimit:4;stroke-opacity:1;stroke-dasharray:none"
         inkscape:label="Gear15"
         transform="translate(375,195.21934)"
         id="g3883">
        <path
           inkscape:connector-curvature="0"
           style="fill:none;stroke:#ff0000;stroke-width:0.35433072;stroke-miterlimit:4;stroke-opacity:1;stroke-dasharray:none"
           d="m 41.085,-4.938 3.461,-0.416 2.939,0.363 6.587,2.902 0,4.178 -6.587,2.902 -2.939,0.363 -3.461,-0.416 -1.544,7.261 3.332,1.028 2.537,1.527 4.837,5.331 -1.699,3.816 -7.198,-0.028 -2.833,-0.863 -2.993,-1.788 -4.363,6.005 2.625,2.295 1.697,2.427 2.251,6.837 -3.105,2.795 -6.564,-2.953 -2.237,-1.941 -2.007,-2.851 -6.429,3.712 1.466,3.164 0.562,2.907 -0.724,7.161 -3.973,1.291 L 9.927,46.703 8.673,44.021 7.999,40.6 0.617,41.376 0.669,44.862 0,47.746 l -3.575,6.248 -4.154,-0.436 -2.198,-6.855 -0.054,-2.96 0.775,-3.4 -7.06,-2.294 -1.37,3.206 -1.784,2.364 -5.807,4.253 -3.618,-2.088 0.78,-7.156 1.155,-2.727 2.091,-2.79 -5.516,-4.967 -2.557,2.371 -2.591,1.434 -7.035,1.524 -2.455,-3.38 3.623,-6.22 2.164,-2.021 3.045,-1.698 -3.019,-6.782 -3.3,1.127 -2.95,0.255 -7.046,-1.469 -0.869,-4.086 5.84,-4.208 2.799,-0.967 3.473,-0.312 0,-7.424 -3.473,-0.312 -2.799,-0.967 -5.84,-4.208 0.869,-4.086 7.046,-1.469 2.95,0.255 3.3,1.127 3.019,-6.782 -3.045,-1.698 -2.164,-2.021 -3.623,-6.22 2.455,-3.38 7.035,1.524 2.591,1.434 2.557,2.371 5.516,-4.967 -2.091,-2.79 -1.155,-2.727 -0.78,-7.156 3.618,-2.088 5.807,4.253 1.784,2.364 1.37,3.206 7.06,-2.294 -0.775,-3.4 0.054,-2.96 2.198,-6.855 4.154,-0.436 3.575,6.248 0.669,2.884 -0.052,3.486 7.382,0.776 0.674,-3.421 1.254,-2.682 4.796,-5.368 3.973,1.291 0.724,7.161 -0.562,2.907 -1.466,3.164 6.429,3.712 2.007,-2.851 2.237,-1.941 6.564,-2.953 3.105,2.795 -2.251,6.837 -1.697,2.427 -2.625,2.295 4.363,6.005 2.993,-1.788 2.833,-0.863 7.198,-0.028 1.699,3.816 -4.837,5.331 -2.537,1.527 -3.332,1.028 z"
           id="path3885" />
      </g>
      <g
         style="stroke:#000000;stroke-width:0.35433072;stroke-miterlimit:4;stroke-opacity:1;stroke-dasharray:none"
         id="g3887"
         transform="translate(375,195.21934)"
         inkscape:label="Gear14">
        <path
           inkscape:connector-curvature="0"
           id="path3889"
           d="m 37.889,-4.842 3.649,-0.466 2.745,0.318 6.605,2.934 0,4.112 -6.605,2.934 -2.745,0.318 -3.649,-0.466 -1.651,7.235 3.49,1.163 2.335,1.478 4.677,5.509 -1.783,3.705 -7.224,-0.223 -2.612,-0.904 -3.085,-2.003 -4.627,5.802 2.64,2.562 1.462,2.345 1.824,6.993 -3.214,2.564 -6.412,-3.335 -1.961,-1.948 -1.91,-3.143 -6.686,3.22 1.266,3.453 0.3,2.748 -1.39,7.092 L 9.32,50.07 4.99,44.283 4.068,41.678 3.711,38.017 l -7.422,0 -0.357,3.661 -0.922,2.605 -4.33,5.787 -4.008,-0.915 -1.39,-7.092 0.3,-2.748 1.266,-3.453 -6.686,-3.22 -1.91,3.143 -1.961,1.948 -6.412,3.335 -3.214,-2.564 1.824,-6.993 1.462,-2.345 2.64,-2.562 -4.627,-5.802 -3.085,2.003 -2.612,0.904 -7.224,0.223 -1.783,-3.705 4.677,-5.509 2.335,-1.478 3.49,-1.163 -1.651,-7.235 -3.649,0.466 -2.745,-0.318 -6.605,-2.934 0,-4.112 6.605,-2.934 2.745,-0.318 3.649,0.466 1.651,-7.235 -3.49,-1.163 -2.335,-1.478 -4.677,-5.509 1.783,-3.705 7.224,0.223 2.612,0.904 3.085,2.003 4.627,-5.802 -2.64,-2.562 -1.462,-2.345 -1.824,-6.993 3.214,-2.564 6.412,3.335 1.961,1.948 1.91,3.143 6.686,-3.22 -1.266,-3.453 -0.3,-2.748 1.39,-7.092 4.008,-0.915 4.33,5.787 0.922,2.605 0.357,3.661 7.422,0 0.357,-3.661 0.922,-2.605 4.33,-5.787 4.008,0.915 1.39,7.092 -0.3,2.748 -1.266,3.453 6.686,3.22 1.91,-3.143 1.961,-1.948 6.412,-3.335 3.214,2.564 -1.824,6.993 -1.462,2.345 -2.64,2.562 4.627,5.802 3.085,-2.003 2.612,-0.904 7.224,-0.223 1.783,3.705 -4.677,5.509 -2.335,1.478 -3.49,1.163 z"
           style="fill:none;stroke:#000000;stroke-width:0.35433072;stroke-miterlimit:4;stroke-opacity:1;stroke-dasharray:none" />
      </g>
    </g>
    <g
       id="g3915"
       transform="translate(232.42539,387.14833)"
       inkscape:label="Gear35"
       style="fill:#7cff00;fill-opacity:0.3942308;stroke:#ff0000;stroke-width:0.35433072;stroke-miterlimit:4;stroke-opacity:1;stroke-dasharray:none">
      <path
         id="path3917"
         d="m 104.856,-6.257 6.44,1.259 6.454,2.609 0,4.778 -6.454,2.609 -6.44,1.259 -0.568,6.309 6.112,2.389 5.885,3.72 -0.853,4.701 -6.817,1.415 -6.562,0.088 -1.685,6.107 5.588,3.441 5.125,4.711 -1.678,4.473 -6.96,0.175 -6.472,-1.084 -2.749,5.707 4.884,4.384 4.202,5.55 -2.45,4.102 -6.879,-1.07 -6.175,-2.223 -3.724,5.125 4.023,5.185 3.143,6.212 -3.143,3.597 -6.578,-2.281 -5.678,-3.289 -4.579,4.377 3.032,5.821 1.984,6.673 -3.735,2.978 -6.065,-3.419 -4.999,-4.25 -5.287,3.49 1.943,6.267 0.761,6.921 -4.207,2.263 -5.357,-4.446 -4.16,-5.076 -5.825,2.49 0.793,6.514 -0.487,6.945 -4.544,1.476 -4.476,-5.331 -3.187,-5.737 -6.177,1.41 -0.382,6.551 -1.72,6.746 -4.734,0.641 -3.452,-6.045 -2.112,-6.213 -6.329,0.284 -1.546,6.377 -2.896,6.331 -4.773,-0.214 -2.318,-6.565 -0.968,-6.491 -6.278,-0.85 -2.66,5.999 -3.98,5.712 -4.658,-1.063 -1.108,-6.873 0.206,-6.559 -6.025,-1.958 -3.688,5.427 -4.936,4.91 -4.393,-1.878 0.137,-6.96 1.374,-6.417 -5.579,-3.002 -4.598,4.681 -5.734,3.949 -3.987,-2.632 1.378,-6.824 2.497,-6.068 -4.952,-3.95 -5.361,3.786 -6.346,2.861 -3.454,-3.301 2.575,-6.469 3.541,-5.525 -4.168,-4.77 -5.951,2.767 -6.755,1.683 -2.808,-3.866 3.687,-5.904 4.471,-4.804 -3.249,-5.439 -6.349,1.661 -6.947,0.449 -2.073,-4.304 4.683,-5.152 5.256,-3.928 -2.225,-5.931 -6.544,0.5 -6.916,-0.798 -1.271,-4.606 5.528,-4.232 5.873,-2.927 -1.131,-6.233 -6.527,-0.676 -6.662,-2.021 -0.429,-4.758 6.195,-3.178 6.302,-1.83 0,-6.336 -6.302,-1.83 -6.195,-3.178 0.429,-4.758 6.662,-2.021 6.527,-0.676 1.131,-6.233 -5.873,-2.927 -5.528,-4.232 1.271,-4.606 6.916,-0.798 6.544,0.5 2.225,-5.931 -5.256,-3.928 -4.683,-5.152 2.073,-4.304 6.947,0.449 6.349,1.661 3.249,-5.439 -4.471,-4.804 -3.687,-5.904 2.808,-3.866 6.755,1.683 5.951,2.767 4.168,-4.77 -3.541,-5.525 -2.575,-6.469 3.454,-3.301 6.346,2.861 5.361,3.786 4.952,-3.95 -2.497,-6.068 -1.378,-6.824 3.987,-2.632 5.734,3.949 4.598,4.681 5.579,-3.002 -1.374,-6.417 -0.137,-6.96 4.393,-1.878 4.936,4.91 3.688,5.427 6.025,-1.958 -0.206,-6.559 1.108,-6.873 4.658,-1.063 3.98,5.712 2.66,5.999 6.278,-0.85 0.968,-6.491 2.318,-6.565 4.773,-0.214 2.896,6.331 1.546,6.377 6.329,0.284 2.112,-6.213 3.452,-6.045 4.734,0.641 1.72,6.746 0.382,6.551 6.177,1.41 3.187,-5.737 4.476,-5.331 4.544,1.476 0.487,6.945 -0.793,6.514 5.825,2.49 4.16,-5.076 5.357,-4.446 4.207,2.263 -0.761,6.921 -1.943,6.267 5.287,3.49 4.999,-4.25 6.065,-3.419 3.735,2.978 -1.984,6.673 -3.032,5.821 4.579,4.377 5.678,-3.289 6.578,-2.281 3.143,3.597 -3.143,6.212 -4.023,5.185 3.724,5.125 6.175,-2.223 6.879,-1.07 2.45,4.102 -4.202,5.55 -4.884,4.384 2.749,5.707 6.472,-1.084 6.96,0.175 1.678,4.473 -5.125,4.711 -5.588,3.441 1.685,6.107 6.562,0.088 6.817,1.415 0.853,4.701 -5.885,3.72 -6.112,2.389 z"
         style="fill:#7cff00;fill-opacity:0.3942308;stroke:#ff0000;stroke-width:0.35433072;stroke-miterlimit:4;stroke-opacity:1;stroke-dasharray:none"
         inkscape:connector-curvature="0" />
    </g>
    <text
       xml:space="preserve"
       style="font-size:22px;font-style:normal;font-variant:normal;font-weight:normal;font-stretch:normal;line-height:125%;letter-spacing:0px;word-spacing:0px;fill:#000000;fill-opacity:1;stroke:none;font-family:Hans;-inkscape-font-specification:Hans"
       x="138.23024"
       y="548.93402"
       id="text3943"
       sodipodi:linespacing="125%"><tspan
         id="tspan4447"
         sodipodi:role="line"
         x="138.23024"
         y="548.93402" /><tspan
         id="tspan4449"
         sodipodi:role="line"
         x="138.23024"
         y="576.43402">34/35 vs 14/15Z</tspan><tspan
         id="tspan4451"
         sodipodi:role="line"
         x="138.23024"
         y="603.93402">-&gt; 1:24.5 oder</tspan><tspan
         id="tspan4473"
         sodipodi:role="line"
         x="138.23024"
         y="631.43408">-&gt; 1:25.5</tspan><tspan
         sodipodi:role="line"
         x="138.23024"
         y="658.93402"
         id="tspan5107" /><tspan
         sodipodi:role="line"
         x="138.23024"
         y="686.43402"
         id="tspan5109">+ 48/276</tspan><tspan
         sodipodi:role="line"
         x="138.23024"
         y="713.93402"
         id="tspan5111">-&gt; 1:146.625</tspan></text>
    <g
       style="fill:#7cff00;fill-opacity:0.3942308;stroke:#ff0000;stroke-width:0.35433072;stroke-miterlimit:4;stroke-opacity:1;stroke-dasharray:none"
       id="g4119"
       transform="translate(-112.12693,191.92898)">
      <g
         inkscape:label="Gear25"
         transform="translate(631.45769,195.21934)"
         id="g4029"
         style="fill:#7cff00;fill-opacity:0.3942308;stroke:#ff0000;stroke-width:0.35433072;stroke-miterlimit:4;stroke-opacity:1;stroke-dasharray:none">
        <path
           style="fill:#7cff00;fill-opacity:0.3942308;stroke:#ff0000;stroke-width:0.35433072;stroke-miterlimit:4;stroke-opacity:1;stroke-dasharray:none"
           d="m 72.99,-5.685 1.563,-0.122 4.867,0.81 6.493,2.706 0,4.582 -6.493,2.706 -4.867,0.81 -1.563,-0.122 -0.879,6.96 1.544,0.271 4.513,1.995 5.616,4.236 -1.14,4.438 -6.961,1.006 -4.917,-0.426 -1.483,-0.506 -2.582,6.522 1.427,0.646 3.876,3.055 4.386,5.499 -2.207,4.016 -6.994,-0.757 -4.656,-1.635 -1.31,-0.86 -4.123,5.676 1.222,0.981 2.993,3.923 2.881,6.417 -3.136,3.34 -6.585,-2.473 -4.104,-2.741 -1.055,-1.158 -5.406,4.471 0.94,1.254 1.924,4.545 1.195,6.931 -3.869,2.455 -5.763,-4.032 -3.293,-3.676 -0.734,-1.384 -6.348,2.987 0.599,1.448 0.733,4.88 -0.567,7.011 -4.357,1.416 -4.58,-5.339 -2.275,-4.379 -0.367,-1.523 -6.891,1.314 0.22,1.552 L 9.974,78.95 7.681,85.6 3.108,85.887 0,79.577 -1.114,74.77 l 0.023,-1.567 -7.001,-0.44 -0.173,1.557 -1.709,4.63 -3.874,5.871 -4.501,-0.859 -1.441,-6.885 0.116,-4.933 0.412,-1.512 -6.671,-2.168 -0.555,1.466 -2.806,4.059 -5.213,4.723 -4.146,-1.951 0.316,-7.027 1.34,-4.749 0.775,-1.362 -5.923,-3.759 -0.902,1.281 -3.727,3.235 -6.224,3.278 -3.53,-2.921 2.053,-6.728 2.479,-4.267 1.09,-1.126 -4.802,-5.114 -1.193,1.017 -4.414,2.206 -6.844,1.627 -2.693,-3.707 3.663,-6.005 3.461,-3.517 1.336,-0.82 -3.38,-6.147 -1.407,0.688 -4.825,1.038 -7.033,-0.125 -1.686,-4.26 5.04,-4.906 4.228,-2.546 1.497,-0.462 -1.744,-6.794 -1.535,0.316 -4.931,-0.194 -6.781,-1.87 -0.574,-4.546 6.103,-3.498 4.728,-1.414 1.565,-0.076 0,-7.014 -1.565,-0.076 -4.728,-1.414 -6.103,-3.498 0.574,-4.546 6.781,-1.87 4.931,-0.194 1.535,0.316 1.744,-6.794 -1.497,-0.462 -4.228,-2.546 -5.04,-4.906 1.686,-4.26 7.033,-0.125 4.825,1.038 1.407,0.688 3.38,-6.147 -1.336,-0.82 -3.461,-3.517 -3.663,-6.005 2.693,-3.707 6.844,1.627 4.414,2.206 1.193,1.017 4.802,-5.114 -1.09,-1.126 -2.479,-4.267 -2.053,-6.728 3.53,-2.921 6.224,3.278 3.727,3.235 0.902,1.281 5.923,-3.759 -0.775,-1.362 -1.34,-4.749 -0.316,-7.027 4.146,-1.951 5.213,4.723 2.806,4.059 0.555,1.466 6.671,-2.168 -0.412,-1.512 -0.116,-4.933 1.441,-6.885 4.501,-0.859 3.874,5.871 1.709,4.63 0.173,1.557 7.001,-0.44 -0.023,-1.567 1.114,-4.807 3.108,-6.31 4.573,0.287 2.293,6.65 0.503,4.909 -0.22,1.552 6.891,1.314 0.367,-1.523 2.275,-4.379 4.58,-5.339 4.357,1.416 0.567,7.011 -0.733,4.88 -0.599,1.448 6.348,2.987 0.734,-1.384 3.293,-3.676 5.763,-4.032 3.869,2.455 -1.195,6.931 -1.924,4.545 -0.94,1.254 5.406,4.471 1.055,-1.158 4.104,-2.741 6.585,-2.473 3.136,3.34 -2.881,6.417 -2.993,3.923 -1.222,0.981 4.123,5.676 1.31,-0.86 4.656,-1.635 6.994,-0.757 2.207,4.016 -4.386,5.499 -3.876,3.055 -1.427,0.646 2.582,6.522 1.483,-0.506 4.917,-0.426 6.961,1.006 1.14,4.438 -5.616,4.236 -4.513,1.995 -1.544,0.271 z"
           id="path4031"
           inkscape:connector-curvature="0" />
      </g>
    </g>
    <g
       style="stroke:#000000;stroke-width:0.35433072;stroke-miterlimit:4;stroke-opacity:1;stroke-dasharray:none"
       inkscape:label="Gear24"
       transform="translate(519.33076,387.14833)"
       id="g4087">
      <path
         style="fill:none;stroke:#000000;stroke-width:0.35433072;stroke-miterlimit:4;stroke-opacity:1;stroke-dasharray:none"
         d="m 69.802,-5.621 1.754,-0.141 4.675,0.766 6.498,2.719 0,4.554 -6.498,2.719 -4.675,0.766 -1.754,-0.141 -0.923,7.016 1.73,0.317 4.317,1.95 5.574,4.308 -1.179,4.4 -6.981,0.944 -4.714,-0.47 -1.657,-0.59 -2.708,6.537 1.589,0.755 3.666,3 4.268,5.604 -2.277,3.945 -6.987,-0.895 -4.432,-1.674 -1.448,-0.999 -4.308,5.614 1.34,1.14 2.764,3.847 2.673,6.518 -3.221,3.221 -6.518,-2.673 -3.847,-2.764 -1.14,-1.34 -5.614,4.308 0.999,1.448 1.674,4.432 0.895,6.987 -3.945,2.277 -5.604,-4.268 -3,-3.666 -0.755,-1.589 -6.537,2.708 0.59,1.657 0.47,4.714 -0.944,6.981 -4.4,1.179 -4.308,-5.574 -1.95,-4.317 -0.317,-1.73 -7.016,0.923 0.141,1.754 -0.766,4.675 -2.719,6.498 -4.554,0 -2.719,-6.498 -0.766,-4.675 0.141,-1.754 -7.016,-0.923 -0.317,1.73 -1.95,4.317 -4.308,5.574 -4.4,-1.179 -0.944,-6.981 0.47,-4.714 0.59,-1.657 -6.537,-2.708 -0.755,1.589 -3,3.666 -5.604,4.268 -3.945,-2.277 0.895,-6.987 1.674,-4.432 0.999,-1.448 -5.614,-4.308 -1.14,1.34 -3.847,2.764 -6.518,2.673 -3.221,-3.221 2.673,-6.518 2.764,-3.847 1.34,-1.14 -4.308,-5.614 -1.448,0.999 -4.432,1.674 -6.987,0.895 -2.277,-3.945 4.268,-5.604 3.666,-3 1.589,-0.755 -2.708,-6.537 -1.657,0.59 -4.714,0.47 -6.981,-0.944 -1.179,-4.4 5.574,-4.308 4.317,-1.95 1.73,-0.317 -0.923,-7.016 -1.754,0.141 -4.675,-0.766 -6.498,-2.719 0,-4.554 6.498,-2.719 4.675,-0.766 1.754,0.141 0.923,-7.016 -1.73,-0.317 -4.317,-1.95 -5.574,-4.308 1.179,-4.4 6.981,-0.944 4.714,0.47 1.657,0.59 2.708,-6.537 -1.589,-0.755 -3.666,-3 -4.268,-5.604 2.277,-3.945 6.987,0.895 4.432,1.674 1.448,0.999 4.308,-5.614 -1.34,-1.14 -2.764,-3.847 -2.673,-6.518 3.221,-3.221 6.518,2.673 3.847,2.764 1.14,1.34 5.614,-4.308 -0.999,-1.448 -1.674,-4.432 -0.895,-6.987 3.945,-2.277 5.604,4.268 3,3.666 0.755,1.589 6.537,-2.708 -0.59,-1.657 -0.47,-4.714 0.944,-6.981 4.4,-1.179 4.308,5.574 1.95,4.317 0.317,1.73 7.016,-0.923 -0.141,-1.754 0.766,-4.675 2.719,-6.498 4.554,0 2.719,6.498 0.766,4.675 -0.141,1.754 7.016,0.923 0.317,-1.73 1.95,-4.317 4.308,-5.574 4.4,1.179 0.944,6.981 -0.47,4.714 -0.59,1.657 6.537,2.708 0.755,-1.589 3,-3.666 5.604,-4.268 3.945,2.277 -0.895,6.987 -1.674,4.432 -0.999,1.448 5.614,4.308 1.14,-1.34 3.847,-2.764 6.518,-2.673 3.221,3.221 -2.673,6.518 -2.764,3.847 -1.34,1.14 4.308,5.614 1.448,-0.999 4.432,-1.674 6.987,-0.895 2.277,3.945 -4.268,5.604 -3.666,3 -1.589,0.755 2.708,6.537 1.657,-0.59 4.714,-0.47 6.981,0.944 1.179,4.4 -5.574,4.308 -4.317,1.95 -1.73,0.317 z"
         id="path4089"
         inkscape:connector-curvature="0" />
    </g>
    <g
       transform="translate(-80.341219,156.2147)"
       id="g4421">
      <g
         inkscape:label="Gear10"
         transform="translate(631.45769,195.21934)"
         id="g4316"
         style="stroke:#ff0000;stroke-width:0.35433072;stroke-miterlimit:4;stroke-opacity:1;stroke-dasharray:none">
        <path
           inkscape:connector-curvature="0"
           style="fill:none;stroke:#ff0000;stroke-width:0.35433072;stroke-miterlimit:4;stroke-opacity:1;stroke-dasharray:none"
           d="m 25.089,-4.358 4.381,-0.761 1.969,0.14 6.712,3.109 0,3.74 -6.712,3.109 -1.969,0.14 -4.381,-0.761 -2.23,6.863 3.992,1.96 1.511,1.27 3.602,6.461 -2.198,3.026 -7.258,-1.43 -1.675,-1.045 -3.097,-3.19 -5.838,4.241 2.077,3.932 0.476,1.916 -0.883,7.344 -3.557,1.156 -5.032,-5.423 -0.741,-1.829 -0.63,-4.402 -7.216,0 -0.63,4.402 -0.741,1.829 -5.032,5.423 -3.557,-1.156 -0.883,-7.344 0.476,-1.916 2.077,-3.932 -5.838,-4.241 -3.097,3.19 -1.675,1.045 -7.258,1.43 -2.198,-3.026 3.602,-6.461 1.511,-1.27 3.992,-1.96 -2.23,-6.863 -4.381,0.761 -1.969,-0.14 -6.712,-3.109 0,-3.74 6.712,-3.109 1.969,-0.14 4.381,0.761 2.23,-6.863 -3.992,-1.96 -1.511,-1.27 -3.602,-6.461 2.198,-3.026 7.258,1.43 1.675,1.045 3.097,3.19 5.838,-4.241 -2.077,-3.932 -0.476,-1.916 0.883,-7.344 3.557,-1.156 5.032,5.423 0.741,1.829 0.63,4.402 7.216,0 0.63,-4.402 0.741,-1.829 5.032,-5.423 3.557,1.156 0.883,7.344 -0.476,1.916 -2.077,3.932 5.838,4.241 3.097,-3.19 1.675,-1.045 7.258,-1.43 2.198,3.026 -3.602,6.461 -1.511,1.27 -3.992,1.96 z"
           id="path4318" />
      </g>
      <g
         id="g4384"
         transform="translate(631.45769,195.21934)"
         inkscape:label="Gear9"
         style="stroke:#000000;stroke-width:0.35433072;stroke-miterlimit:4;stroke-opacity:1;stroke-dasharray:none">
        <path
           inkscape:connector-curvature="0"
           id="path4386"
           d="m 21.883,-4.196 4.556,-0.873 1.774,0.094 6.755,3.172 0,3.606 -6.755,3.172 -1.774,0.094 -4.556,-0.873 -2.423,6.656 4.052,2.259 1.298,1.213 3.136,6.772 -2.318,2.762 -7.213,-1.912 -1.42,-1.068 -2.929,-3.598 -6.134,3.542 1.651,4.335 0.215,1.763 -1.95,7.203 L 4.297,34.749 0,28.648 l -0.401,-1.731 0.069,-4.638 -6.976,-1.23 -1.521,4.382 -0.969,1.489 -6.125,4.264 -3.122,-1.803 0.63,-7.435 0.806,-1.584 3.034,-3.509 -4.553,-5.426 -3.982,2.379 -1.7,0.518 -7.432,-0.67 -1.233,-3.388 5.262,-5.291 1.635,-0.696 4.58,-0.737 0,-7.084 -4.58,-0.737 -1.635,-0.696 -5.262,-5.291 1.233,-3.388 7.432,-0.67 1.7,0.518 3.982,2.379 4.553,-5.426 -3.034,-3.509 -0.806,-1.584 -0.63,-7.435 3.122,-1.803 6.125,4.264 0.969,1.489 1.521,4.382 6.976,-1.23 -0.069,-4.638 0.401,-1.731 4.297,-6.101 3.551,0.626 1.95,7.203 -0.215,1.763 -1.651,4.335 6.134,3.542 2.929,-3.598 1.42,-1.068 7.213,-1.912 2.318,2.762 -3.136,6.772 -1.298,1.213 -4.052,2.259 z"
           style="fill:none;stroke:#000000;stroke-width:0.35433072;stroke-miterlimit:4;stroke-opacity:1;stroke-dasharray:none" />
      </g>
    </g>
    <g
       transform="translate(-97.484076,237.28613)"
       id="g4427">
      <g
         style="stroke:#ff0000;stroke-width:0.35433072;stroke-miterlimit:4;stroke-opacity:1;stroke-dasharray:none"
         id="g4429"
         transform="translate(631.45769,195.21934)"
         inkscape:label="Gear10">
        <path
           inkscape:connector-curvature="0"
           id="path4431"
           d="m 25.089,-4.358 4.381,-0.761 1.969,0.14 6.712,3.109 0,3.74 -6.712,3.109 -1.969,0.14 -4.381,-0.761 -2.23,6.863 3.992,1.96 1.511,1.27 3.602,6.461 -2.198,3.026 -7.258,-1.43 -1.675,-1.045 -3.097,-3.19 -5.838,4.241 2.077,3.932 0.476,1.916 -0.883,7.344 -3.557,1.156 -5.032,-5.423 -0.741,-1.829 -0.63,-4.402 -7.216,0 -0.63,4.402 -0.741,1.829 -5.032,5.423 -3.557,-1.156 -0.883,-7.344 0.476,-1.916 2.077,-3.932 -5.838,-4.241 -3.097,3.19 -1.675,1.045 -7.258,1.43 -2.198,-3.026 3.602,-6.461 1.511,-1.27 3.992,-1.96 -2.23,-6.863 -4.381,0.761 -1.969,-0.14 -6.712,-3.109 0,-3.74 6.712,-3.109 1.969,-0.14 4.381,0.761 2.23,-6.863 -3.992,-1.96 -1.511,-1.27 -3.602,-6.461 2.198,-3.026 7.258,1.43 1.675,1.045 3.097,3.19 5.838,-4.241 -2.077,-3.932 -0.476,-1.916 0.883,-7.344 3.557,-1.156 5.032,5.423 0.741,1.829 0.63,4.402 7.216,0 0.63,-4.402 0.741,-1.829 5.032,-5.423 3.557,1.156 0.883,7.344 -0.476,1.916 -2.077,3.932 5.838,4.241 3.097,-3.19 1.675,-1.045 7.258,-1.43 2.198,3.026 -3.602,6.461 -1.511,1.27 -3.992,1.96 z"
           style="fill:none;stroke:#ff0000;stroke-width:0.35433072;stroke-miterlimit:4;stroke-opacity:1;stroke-dasharray:none" />
      </g>
      <g
         style="stroke:#000000;stroke-width:0.35433072;stroke-miterlimit:4;stroke-opacity:1;stroke-dasharray:none"
         inkscape:label="Gear9"
         transform="translate(631.45769,195.21934)"
         id="g4433">
        <path
           inkscape:connector-curvature="0"
           style="fill:none;stroke:#000000;stroke-width:0.35433072;stroke-miterlimit:4;stroke-opacity:1;stroke-dasharray:none"
           d="m 21.883,-4.196 4.556,-0.873 1.774,0.094 6.755,3.172 0,3.606 -6.755,3.172 -1.774,0.094 -4.556,-0.873 -2.423,6.656 4.052,2.259 1.298,1.213 3.136,6.772 -2.318,2.762 -7.213,-1.912 -1.42,-1.068 -2.929,-3.598 -6.134,3.542 1.651,4.335 0.215,1.763 -1.95,7.203 L 4.297,34.749 0,28.648 l -0.401,-1.731 0.069,-4.638 -6.976,-1.23 -1.521,4.382 -0.969,1.489 -6.125,4.264 -3.122,-1.803 0.63,-7.435 0.806,-1.584 3.034,-3.509 -4.553,-5.426 -3.982,2.379 -1.7,0.518 -7.432,-0.67 -1.233,-3.388 5.262,-5.291 1.635,-0.696 4.58,-0.737 0,-7.084 -4.58,-0.737 -1.635,-0.696 -5.262,-5.291 1.233,-3.388 7.432,-0.67 1.7,0.518 3.982,2.379 4.553,-5.426 -3.034,-3.509 -0.806,-1.584 -0.63,-7.435 3.122,-1.803 6.125,4.264 0.969,1.489 1.521,4.382 6.976,-1.23 -0.069,-4.638 0.401,-1.731 4.297,-6.101 3.551,0.626 1.95,7.203 -0.215,1.763 -1.651,4.335 6.134,3.542 2.929,-3.598 1.42,-1.068 7.213,-1.912 2.318,2.762 -3.136,6.772 -1.298,1.213 -4.052,2.259 z"
           id="path4435" />
      </g>
    </g>
    <g
       transform="translate(-159.62693,181.92898)"
       id="g4437">
      <g
         inkscape:label="Gear10"
         transform="translate(631.45769,195.21934)"
         id="g4439"
         style="stroke:#ff0000;stroke-width:0.35433072;stroke-miterlimit:4;stroke-opacity:1;stroke-dasharray:none">
        <path
           inkscape:connector-curvature="0"
           style="fill:none;stroke:#ff0000;stroke-width:0.35433072;stroke-miterlimit:4;stroke-opacity:1;stroke-dasharray:none"
           d="m 25.089,-4.358 4.381,-0.761 1.969,0.14 6.712,3.109 0,3.74 -6.712,3.109 -1.969,0.14 -4.381,-0.761 -2.23,6.863 3.992,1.96 1.511,1.27 3.602,6.461 -2.198,3.026 -7.258,-1.43 -1.675,-1.045 -3.097,-3.19 -5.838,4.241 2.077,3.932 0.476,1.916 -0.883,7.344 -3.557,1.156 -5.032,-5.423 -0.741,-1.829 -0.63,-4.402 -7.216,0 -0.63,4.402 -0.741,1.829 -5.032,5.423 -3.557,-1.156 -0.883,-7.344 0.476,-1.916 2.077,-3.932 -5.838,-4.241 -3.097,3.19 -1.675,1.045 -7.258,1.43 -2.198,-3.026 3.602,-6.461 1.511,-1.27 3.992,-1.96 -2.23,-6.863 -4.381,0.761 -1.969,-0.14 -6.712,-3.109 0,-3.74 6.712,-3.109 1.969,-0.14 4.381,0.761 2.23,-6.863 -3.992,-1.96 -1.511,-1.27 -3.602,-6.461 2.198,-3.026 7.258,1.43 1.675,1.045 3.097,3.19 5.838,-4.241 -2.077,-3.932 -0.476,-1.916 0.883,-7.344 3.557,-1.156 5.032,5.423 0.741,1.829 0.63,4.402 7.216,0 0.63,-4.402 0.741,-1.829 5.032,-5.423 3.557,1.156 0.883,7.344 -0.476,1.916 -2.077,3.932 5.838,4.241 3.097,-3.19 1.675,-1.045 7.258,-1.43 2.198,3.026 -3.602,6.461 -1.511,1.27 -3.992,1.96 z"
           id="path4441" />
      </g>
      <g
         id="g4443"
         transform="translate(631.45769,195.21934)"
         inkscape:label="Gear9"
         style="stroke:#000000;stroke-width:0.35433072;stroke-miterlimit:4;stroke-opacity:1;stroke-dasharray:none">
        <path
           inkscape:connector-curvature="0"
           id="path4445"
           d="m 21.883,-4.196 4.556,-0.873 1.774,0.094 6.755,3.172 0,3.606 -6.755,3.172 -1.774,0.094 -4.556,-0.873 -2.423,6.656 4.052,2.259 1.298,1.213 3.136,6.772 -2.318,2.762 -7.213,-1.912 -1.42,-1.068 -2.929,-3.598 -6.134,3.542 1.651,4.335 0.215,1.763 -1.95,7.203 L 4.297,34.749 0,28.648 l -0.401,-1.731 0.069,-4.638 -6.976,-1.23 -1.521,4.382 -0.969,1.489 -6.125,4.264 -3.122,-1.803 0.63,-7.435 0.806,-1.584 3.034,-3.509 -4.553,-5.426 -3.982,2.379 -1.7,0.518 -7.432,-0.67 -1.233,-3.388 5.262,-5.291 1.635,-0.696 4.58,-0.737 0,-7.084 -4.58,-0.737 -1.635,-0.696 -5.262,-5.291 1.233,-3.388 7.432,-0.67 1.7,0.518 3.982,2.379 4.553,-5.426 -3.034,-3.509 -0.806,-1.584 -0.63,-7.435 3.122,-1.803 6.125,4.264 0.969,1.489 1.521,4.382 6.976,-1.23 -0.069,-4.638 0.401,-1.731 4.297,-6.101 3.551,0.626 1.95,7.203 -0.215,1.763 -1.651,4.335 6.134,3.542 2.929,-3.598 1.42,-1.068 7.213,-1.912 2.318,2.762 -3.136,6.772 -1.298,1.213 -4.052,2.259 z"
           style="fill:none;stroke:#000000;stroke-width:0.35433072;stroke-miterlimit:4;stroke-opacity:1;stroke-dasharray:none" />
      </g>
    </g>
    <text
       sodipodi:linespacing="125%"
       id="text4455"
       y="498.21973"
       x="429.65884"
       style="font-size:22px;font-style:normal;font-variant:normal;font-weight:normal;font-stretch:normal;line-height:125%;letter-spacing:0px;word-spacing:0px;fill:#000000;fill-opacity:1;stroke:none;font-family:Hans;-inkscape-font-specification:Hans"
       xml:space="preserve"><tspan
         y="498.21973"
         x="429.65884"
         sodipodi:role="line"
         id="tspan4457" /><tspan
         y="525.71973"
         x="429.65884"
         sodipodi:role="line"
         id="tspan4459">24/25 vs 9/10Z</tspan><tspan
         y="553.21973"
         x="429.65884"
         sodipodi:role="line"
         id="tspan4461">-&gt; 1:15 oder</tspan><tspan
         id="tspan4471"
         y="580.71973"
         x="429.65884"
         sodipodi:role="line">-&gt; 1:16</tspan><tspan
         id="tspan4711"
         y="608.21973"
         x="429.65884"
         sodipodi:role="line" /><tspan
         id="tspan4713"
         y="635.71973"
         x="429.65884"
         sodipodi:role="line">+ 36/276</tspan><tspan
         id="tspan4715"
         y="663.21973"
         x="429.65884"
         sodipodi:role="line">-&gt; 1:115</tspan></text>
    <text
       sodipodi:linespacing="125%"
       id="text4463"
       y="396.29074"
       x="581.42859"
       style="font-size:22px;font-style:normal;font-variant:normal;font-weight:normal;font-stretch:normal;line-height:125%;letter-spacing:0px;word-spacing:0px;fill:#000000;fill-opacity:1;stroke:none;font-family:Hans;-inkscape-font-specification:Hans"
       xml:space="preserve"><tspan
         y="396.29074"
         x="581.42859"
         id="tspan4467"
         sodipodi:role="line" /></text>
    <g
       style="fill:#7cff00;fill-opacity:0.3942308;stroke:#ff0000;stroke-width:0.35433072;stroke-miterlimit:4;stroke-opacity:1;stroke-dasharray:none"
       inkscape:label="Gear36"
       transform="translate(519.52576,387.14833)"
       id="g4649">
      <path
         inkscape:connector-curvature="0"
         style="fill:#7cff00;fill-opacity:0.3942308;stroke:#ff0000;stroke-width:0.35433072;stroke-miterlimit:4;stroke-opacity:1;stroke-dasharray:none"
         d="m 108.042,-6.295 6.44,1.297 6.452,2.602 0,4.792 -6.452,2.602 -6.44,1.297 -0.548,6.267 6.117,2.395 5.902,3.683 -0.832,4.719 -6.806,1.443 -6.567,0.159 -1.629,6.076 5.609,3.421 5.172,4.652 -1.639,4.503 -6.952,0.239 -6.496,-0.984 -2.658,5.701 4.929,4.343 4.286,5.48 -2.396,4.15 -6.888,-0.972 -6.226,-2.097 -3.609,5.153 4.101,5.133 3.269,6.141 -3.08,3.67 -6.615,-2.153 -5.767,-3.147 -4.449,4.449 3.147,5.767 2.153,6.615 -3.67,3.08 -6.141,-3.269 -5.133,-4.101 -5.153,3.609 2.097,6.226 0.972,6.888 -4.15,2.396 -5.48,-4.286 -4.343,-4.929 -5.701,2.658 0.984,6.496 -0.239,6.952 -4.503,1.639 -4.652,-5.172 -3.421,-5.609 -6.076,1.629 -0.159,6.567 -1.443,6.806 -4.719,0.832 -3.683,-5.902 -2.395,-6.117 -6.267,0.548 -1.297,6.44 -2.602,6.452 -4.792,0 -2.602,-6.452 -1.297,-6.44 -6.267,-0.548 -2.395,6.117 -3.683,5.902 -4.719,-0.832 -1.443,-6.806 -0.159,-6.567 -6.076,-1.629 -3.421,5.609 -4.652,5.172 -4.503,-1.639 -0.239,-6.952 0.984,-6.496 -5.701,-2.658 -4.343,4.929 -5.48,4.286 -4.15,-2.396 0.972,-6.888 2.097,-6.226 -5.153,-3.609 -5.133,4.101 -6.141,3.269 -3.67,-3.08 2.153,-6.615 3.147,-5.767 -4.449,-4.449 -5.767,3.147 -6.615,2.153 -3.08,-3.67 3.269,-6.141 4.101,-5.133 -3.609,-5.153 -6.226,2.097 -6.888,0.972 -2.396,-4.15 4.286,-5.48 4.929,-4.343 -2.658,-5.701 -6.496,0.984 -6.952,-0.239 -1.639,-4.503 5.172,-4.652 5.609,-3.421 -1.629,-6.076 -6.567,-0.159 -6.806,-1.443 -0.832,-4.719 5.902,-3.683 6.117,-2.395 -0.548,-6.267 -6.44,-1.297 -6.452,-2.602 0,-4.792 6.452,-2.602 6.44,-1.297 0.548,-6.267 -6.117,-2.395 -5.902,-3.683 0.832,-4.719 6.806,-1.443 6.567,-0.159 1.629,-6.076 -5.609,-3.421 -5.172,-4.652 1.639,-4.503 6.952,-0.239 6.496,0.984 2.658,-5.701 -4.929,-4.343 -4.286,-5.48 2.396,-4.15 6.888,0.972 6.226,2.097 3.609,-5.153 -4.101,-5.133 -3.269,-6.141 3.08,-3.67 6.615,2.153 5.767,3.147 4.449,-4.449 -3.147,-5.767 -2.153,-6.615 3.67,-3.08 6.141,3.269 5.133,4.101 5.153,-3.609 -2.097,-6.226 -0.972,-6.888 4.15,-2.396 5.48,4.286 4.343,4.929 5.701,-2.658 -0.984,-6.496 0.239,-6.952 4.503,-1.639 4.652,5.172 3.421,5.609 6.076,-1.629 0.159,-6.567 1.443,-6.806 4.719,-0.832 3.683,5.902 2.395,6.117 6.267,-0.548 1.297,-6.44 2.602,-6.452 4.792,0 2.602,6.452 1.297,6.44 6.267,0.548 2.395,-6.117 3.683,-5.902 4.719,0.832 1.443,6.806 0.159,6.567 6.076,1.629 3.421,-5.609 4.652,-5.172 4.503,1.639 0.239,6.952 -0.984,6.496 5.701,2.658 4.343,-4.929 5.48,-4.286 4.15,2.396 -0.972,6.888 -2.097,6.226 5.153,3.609 5.133,-4.101 6.141,-3.269 3.67,3.08 -2.153,6.615 -3.147,5.767 4.449,4.449 5.767,-3.147 6.615,-2.153 3.08,3.67 -3.269,6.141 -4.101,5.133 3.609,5.153 6.226,-2.097 6.888,-0.972 2.396,4.15 -4.286,5.48 -4.929,4.343 2.658,5.701 6.496,-0.984 6.952,0.239 1.639,4.503 -5.172,4.652 -5.609,3.421 1.629,6.076 6.567,0.159 6.806,1.443 0.832,4.719 -5.902,3.683 -6.117,2.395 z"
         id="path4651" />
    </g>
    <text
       xml:space="preserve"
       style="font-size:22px;font-style:normal;font-variant:normal;font-weight:normal;font-stretch:normal;line-height:125%;letter-spacing:0px;word-spacing:0px;fill:#000000;fill-opacity:1;stroke:none;font-family:Hans;-inkscape-font-specification:Hans"
       x="84.852814"
       y="81.605583"
       id="text5113"
       sodipodi:linespacing="125%"><tspan
         sodipodi:role="line"
         id="tspan5115"
         x="84.852814"
         y="81.605583">  Harmonic Gears (c) 2013 jw@suse.de</tspan></text>
  </g>
</svg>
